<?xml version="1.0" standalone="no"?><!DOCTYPE svg PUBLIC "-//W3C//DTD SVG 20010904//EN"
 "http://www.w3.org/TR/2001/REC-SVG-20010904/DTD/svg10.dtd"><svg xmlns="http://www.w3.org/2000/svg" width="2560" height="2560" version="1.0" viewBox="0 0 1920 1920"><path fill="#ec2b82" d="M0 960v960h1920V0H0v960zm617.1-424c1.5 4.7 10 31.7 18.9 60 8.9 28.3 17.2 54.9 18.5 59 4.6 15 13.6 43.7 31.5 100.5 10 31.9 20.6 65.6 23.5 75 2.9 9.3 13.5 43.1 23.5 75s20.6 65.6 23.5 75c2.9 9.3 12.3 39.5 21 67 8.6 27.5 18.9 60.2 22.8 72.8 3.9 12.5 7.4 22.4 7.8 22 .4-.5 44-130.9 96.9-289.8 52.8-159 98.9-297.2 102.3-307.3l6.2-18.2h52.4c28.9 0 52.1.4 51.5.8-.5.5-4.8 3.4-9.6 6.6-46.6 30.8-74.7 77.5-81.4 135.1-1.2 10.6-1.5 18.7-1.1 33.5 2.3 75.2 28.9 137.8 82 192.6l12.7 13.1v47.2c0 40.5.2 47.1 1.5 47.1.7 0 4-.7 7.2-1.5 18.9-5 47.1-5.6 67-1.6 54.2 11.1 94.7 51.1 106.9 105.6 2.4 10.9 3 36 1.1 48.1-6.4 39.9-30.6 73.9-68.4 95.8-7.7 4.5-10.3 5.1-10.3 2.3 0-.7 4.5-5.4 10-10.5 17.6-16.4 29.3-34.8 35.6-55.7 2.1-7.3 2.7-11.7 3.1-23.3.6-16-.5-25.3-4.4-37.1-16-48.5-60.5-80.2-112.8-80.3-66.3-.1-121.5 47.3-136.6 117.2-2 9-2.3 13.5-2.4 32 0 22.5.6 28.3 5.1 46.3 6.5 26 19.7 50.3 39.2 72.2 46.3 52 123.8 77.4 193.7 63.4 63.5-12.7 109.1-57.8 125.5-123.9 5.6-22.4 6.5-31.1 6.5-60 0-22.9-.3-28.1-2.2-38.5-8.4-46.1-28.2-82-66.5-120.7-20.7-20.9-40.8-37.2-99.4-80.8-13.7-10.2-30.5-23-37.4-28.4-80.2-63.6-116-120-125.5-197.5-1.9-15.7-2.1-41.9-.5-54.5 8.5-67.1 51.8-116.7 118.4-136 46.5-13.5 92.2-11 138.9 7.5 22.4 8.9 44.8 22.5 57.5 34.8l4.2 4.1v77h-3.5c-3 0-3.6-.4-4.1-2.8-9.4-41.4-29-71.7-59.8-92.3-23.9-16.1-47.8-23.3-76.6-23.3-32.5.1-61.6 9.1-82.2 25.4-13.9 11.1-25.1 28.5-30 46.5-2.9 10.8-3.2 41-.5 55.5 7.6 41.1 31.8 78.4 74.7 115.5 19.3 16.7 29.2 24.3 72 55.5 53 38.5 73.1 55 99.1 80.9 20.5 20.5 32.3 34.7 46.1 55.5 33.7 50.9 49.1 108.3 47.5 177.1-.7 31.3-4.3 53.8-12.3 78.8-14.4 44.3-39.1 81.2-73.8 110.2-15.6 13-42.2 28.2-63.1 36-12.7 4.8-36.5 10.7-52 13.1-15.1 2.3-55.2 2.6-69 .6-68.6-10.3-118.9-40.1-152.8-90.5-3.6-5.4-6.9-10.7-7.2-11.8-.6-1.8-1.8-1.9-29.6-1.9H969v-4c0-3.9.1-4 3.8-4.1 5.4-.1 14.7-3.2 14.6-5-.1-.8-1.8-6.7-3.8-13.1-7.3-24-10.6-47.4-10.6-75.3 0-49 11.6-92.4 34.6-129.6l5.4-8.7-.2-235-.3-235-21.4 63.6c-33.3 99.2-200.4 599.1-208.5 623.7l-7.3 22-17 .3c-12.9.2-17.3-.1-18-1-.6-.7-3.8-10.5-7.2-21.8-3.5-11.3-9.8-31.8-14.1-45.5-4.3-13.8-14.2-45.5-22-70.5-7.8-25-18.3-59-23.5-75.5-5.1-16.5-16.6-53.4-25.5-82-8.9-28.6-19.7-63.3-24-77-4.3-13.8-10.5-33.8-13.8-44.5-3.3-10.7-10.3-33.5-15.7-50.5-5.3-17.1-15-48.3-21.6-69.5-19.4-62.1-49.5-158.4-51.3-164-1.6-5.1-2.2 650.9-.5 659.5 2.3 12.3 10 23 20.8 28.9 5.9 3.2 14 5.6 18.9 5.6 3.1 0 3.2.2 3.2 4v4H462v-4c0-3.9.1-4 3.4-4 5.7 0 16.2-3.8 22.7-8.3 6.9-4.7 11.6-10.7 15.1-19.5l2.3-5.7.3-335c.2-247.3 0-336.6-.9-341-3.1-16.8-14.3-28.6-31.2-33.1-2.8-.7-6.7-1.4-8.4-1.4-3.2 0-3.3-.2-3.3-4v-4l76.2.2 76.2.3 2.7 8.5zm504.8 712.5c3.5 10.5 9.2 17.9 18.1 23.7 5.2 3.3 15.7 6.8 20.6 6.8 3.3 0 3.4.1 3.4 4v4h-85.6l-3.7-4.9c-12.9-17.3-23.6-43.4-26.8-65.3-1.8-12.1-1.6-35.5.4-46.4 4.4-23.8 15.2-45.4 31.1-62.2 9.4-9.9 17.9-16.3 30.1-22.3l10-5.1.5 81.9c.4 64.4.8 82.7 1.9 85.8z"/></svg>