<svg width="40" height="40" viewBox="0 0 40 40" fill="
#15ffea" xmlns="http://www.w3.org/2000/svg">
<path fill-rule="evenodd" clip-rule="evenodd" d="M21.6667 16.6667C21.6667 17.5507 22.0179 18.3986 22.643 19.0237C23.2681 19.6488 24.1159 20 25 20C25.8841 20 26.7319 19.6488 27.357 19.0237C27.9821 18.3986 28.3333 17.5507 28.3333 16.6667V8.33333C28.3333 7.44928 27.9821 6.60143 27.357 5.97631C26.7319 5.35119 25.8841 5 25 5C24.1159 5 23.2681 5.35119 22.643 5.97631C22.0179 6.60143 21.6667 7.44928 21.6667 8.33333V16.6667ZM8.33333 13.3333C7.44928 13.3333 6.60143 13.6845 5.97631 14.3096C5.35119 14.9348 5 15.7826 5 16.6667C5 17.5507 5.35119 18.3986 5.97631 19.0237C6.60143 19.6488 7.44928 20 8.33333 20H16.6667C17.5507 20 18.3986 19.6488 19.0237 19.0237C19.6488 18.3986 20 17.5507 20 16.6667C20 15.7826 19.6488 14.9348 19.0237 14.3096C18.3986 13.6845 17.5507 13.3333 16.6667 13.3333H8.33333ZM25 21.6667C24.1159 21.6667 23.2681 22.0179 22.643 22.643C22.0179 23.2681 21.6667 24.1159 21.6667 25C21.6667 25.8841 22.0179 26.7319 22.643 27.357C23.2681 27.9821 24.1159 28.3333 25 28.3333H33.3333C34.2174 28.3333 35.0652 27.9821 35.6904 27.357C36.3155 26.7319 36.6667 25.8841 36.6667 25C36.6667 24.1159 36.3155 23.2681 35.6904 22.643C35.0652 22.0179 34.2174 21.6667 33.3333 21.6667H25ZM16.6667 36.6667C15.7826 36.6667 14.9348 36.3155 14.3096 35.6904C13.6845 35.0652 13.3333 34.2174 13.3333 33.3333V25C13.3333 24.1159 13.6845 23.2681 14.3096 22.643C14.9348 22.0179 15.7826 21.6667 16.6667 21.6667C17.5507 21.6667 18.3986 22.0179 19.0237 22.643C19.6488 23.2681 20 24.1159 20 25V33.3333C20 34.2174 19.6488 35.0652 19.0237 35.6904C18.3986 36.3155 17.5507 36.6667 16.6667 36.6667ZM13.3333 8.33333C13.3333 7.44928 13.6845 6.60143 14.3096 5.97631C14.9348 5.35119 15.7826 5 16.6667 5C17.5507 5 18.3986 5.35119 19.0237 5.97631C19.6488 6.60143 20 7.44928 20 8.33333V11.6667H16.6667C15.7826 11.6667 14.9348 11.3155 14.3096 10.6904C13.6845 10.0652 13.3333 9.21739 13.3333 8.33333ZM5 25C5 25.8841 5.35119 26.7319 5.97631 27.357C6.60143 27.9821 7.44928 28.3333 8.33333 28.3333C9.21739 28.3333 10.0652 27.9821 10.6904 27.357C11.3155 26.7319 11.6667 25.8841 11.6667 25V21.6667H8.33333C7.44928 21.6667 6.60143 22.0179 5.97631 22.643C5.35119 23.2681 5 24.1159 5 25ZM28.3333 33.3333C28.3333 34.2174 27.9821 35.0652 27.357 35.6904C26.7319 36.3155 25.8841 36.6667 25 36.6667C24.1159 36.6667 23.2681 36.3155 22.643 35.6904C22.0179 35.0652 21.6667 34.2174 21.6667 33.3333V30H25C25.8841 30 26.7319 30.3512 27.357 30.9763C27.9821 31.6014 28.3333 32.4493 28.3333 33.3333ZM36.6667 16.6667C36.6667 15.7826 36.3155 14.9348 35.6904 14.3096C35.0652 13.6845 34.2174 13.3333 33.3333 13.3333C32.4493 13.3333 31.6014 13.6845 30.9763 14.3096C30.3512 14.9348 30 15.7826 30 16.6667V20H33.3333C34.2174 20 35.0652 19.6488 35.6904 19.0237C36.3155 18.3986 36.6667 17.5507 36.6667 16.6667Z" fill="
#15ffea"/>
</svg>
